# AST/ASF file generated using VICON BodyLanguage
# -----------------------------------------------
:version 1.10
:name VICON
:units
  mass 1.0
  length 0.45
  angle deg
:documentation
   .ast/.asf automatically generated from VICON data using
   VICON BodyBuilder and BodyLanguage model FoxedUp or BRILLIANT.MOD
:root
   order TX TY TZ RX RY RZ
   axis XYZ
   position 0 0 0  
   orientation 0 0 0 
:bonedata
  begin
     id 1 
     name lhipjoint
     direction 0.578396 -0.714046 0.394458 
     length 2.21935 
     axis 0 0 0  XYZ
  end
  begin
     id 2 
     name lfemur
     direction 0.34202 -0.939693 0  
     length 6.39105  
     axis 0 0 20  XYZ
    dof rx ry rz
    limits (-160.0 20.0)
           (-70.0 70.0)
           (-60.0 70.0)
  end
  begin
     id 3 
     name ltibia
     direction 0.34202 -0.939693 0   
     length 6.99037   
     axis 0 0 20   XYZ
    dof rx
    limits (-10.0 170.0)
  end
  begin
     id 4 
     name lfoot
     direction 0.0582372 -0.160005 0.985397   
     length 2.06111   
     axis -90 7.62852e-016 20   XYZ
    dof rx rz
    limits (-45.0 90.0)
           (-70.0 20.0)
  end
  begin
     id 5 
     name ltoes
     direction 1.53556e-011 -4.21875e-011 1   
     length 1.04074   
     axis -90 7.62852e-016 20   XYZ
    dof rx
    limits (-90.0 20.0)
  end
  begin
     id 6 
     name rhipjoint
     direction -0.558179 -0.726269 0.40121   
     length 2.182  
     axis 0 0 0  XYZ 
  end
  begin
     id 7 
     name rfemur
     direction -0.34202 -0.939693 0   
     length 6.51172   
     axis 0 0 -20   XYZ
    dof rx ry rz
    limits (-160.0 20.0)
           (-70.0 70.0)
           (-70.0 60.0)
  end
  begin
     id 8 
     name rtibia
     direction -0.34202 -0.939693 0   
     length 7.02607   
     axis 0 0 -20   XYZ
    dof rx
    limits (-10.0 170.0)
 end
 begin
     id 9 
     name rfoot
     direction -0.0788856 -0.216737 0.973038   
     length 1.96734  
     axis -90 -7.62852e-016 -20   XYZ
    dof rx rz
    limits (-45.0 90.0)
           (-20.0 70.0)
  end
  begin
     id 10 
     name rtoes
     direction -1.53567e-011 -4.21783e-011 1   
     length 0.990825   
     axis -90 -7.62852e-016 -20   XYZ
    dof rx
    limits (-90.0 20.0)
  end
  begin
     id 11 
     name lowerback
     direction 0.00668177 0.999323 -0.0361741   
     length 1.7655   
     axis 0 0 0   XYZ
    dof rx ry rz
    limits (-20.0 45.0)
           (-30.0 30.0)
           (-30.0 30.0)
  end
  begin
     id 12 
     name upperback
     direction -0.00222086 0.99851 0.0545167   
     length 1.74912   
     axis 0 0 0   XYZ
    dof rx ry rz
    limits (-20.0 45.0)
           (-30.0 30.0)
           (-30.0 30.0)
  end
  begin
     id 13 
     name thorax
     direction -0.00733971 0.997496 0.0703443   
     length 1.75715   
     axis 0 0 0   XYZ
    dof rx ry rz
    limits (-20.0 45.0)
           (-30.0 30.0)
           (-30.0 30.0)
  end
  begin
     id 14 
     name lowerneck
     direction 0.0279797 0.994795 0.0979765   
     length 1.46939   
     axis 0 0 0   XYZ
    dof rx ry rz
    limits (-20.0 45.0)
           (-30.0 30.0)
           (-30.0 30.0)
  end
  begin
     id 15 
     name upperneck
     direction 0.00339187 0.976776 -0.214238   
     length 1.48018   
     axis 0 0 0   XYZ
    dof rx ry rz
    limits (-20.0 45.0)
           (-30.0 30.0)
           (-30.0 30.0)
  end
  begin
     id 16
     name head
     direction -0.00263506 0.996603 -0.0823096  
     length 1.4976  
     axis 0 0 0   XYZ
    dof rx ry rz
    limits (-20.0 45.0)
           (-30.0 30.0)
           (-30.0 30.0)
  end
  begin
     id 17 
     name lclavicle
     direction 0.894044 0.44508 -0.0508781  
     length 3.03024  
     axis 0 0 0   XYZ
    dof ry rz
    limits (-20.0 10.0)
           (0.0 20.0)
  end
  begin
     id 18 
     name lhumerus
     direction 1 -4.48961e-011 -2.39475e-018   
     length 4.4661   
     axis 180 -30 -90   XYZ
    dof rx ry rz
    limits (-60.0 90.0)
           (-90.0 90.0)
           (-90.0 90.0)
  end
  begin
     id 19
     name lradius
     direction 1 -4.48961e-011 9.29328e-028   
     length 3.41414   
     axis 180 -30 -90   XYZ
    dof rx
    limits (-10.0 170.0)
  end
  begin
     id 20
     name lwrist
     direction 1 -4.48985e-011 1.53461e-026   
     length 1.70707   
     axis -1.09697e-014 90 90   XYZ
    dof ry
    limits (-180.0 0.0)
 end
  begin
     id 21 
     name lhand
     direction 1 -4.48966e-011 3.06923e-026   
     length 0.328298   
     axis -1.95843e-014 90 90   XYZ
    dof rx rz
    limits (-90.0 90.0)
           (-45.0 45.0)
  end
  begin
     id 22 
     name lfingers
     direction 1 -4.48893e-011 6.13845e-026   
     length 0.264682   
     axis -3.91686e-014 90 90   XYZ
    dof rx
    limits (0.0 90.0)
  end
  begin
     id 23
     name lthumb
     direction 0.707107 -6.34876e-011 0.707107   
     length 0.380032   
     axis -90 45 2.85299e-015   XYZ
    dof rx rz
    limits (-45.0 45.0)
           (-45.0 45.0)
  end
  begin
     id 24 
     name rclavicle
     direction -0.936955 0.347862 -0.0332887   
     length 3.26927  
     axis 0 0 0   XYZ 
    dof ry rz
    limits (-10.0 20.0)
           (-20.0 0.0)
  end
  begin
     id 25 
     name rhumerus
     direction -1 -4.4896e-011 1.78637e-018  
     length 4.40431   
     axis 180 30 90   XYZ
    dof rx ry rz
    limits (-90.0 60.0)
           (-90.0 90.0)
           (-90.0 90.0)
  end
  begin
     id 26 
     name rradius
     direction -1 -4.48955e-011 9.34036e-027   
     length 3.04688   
     axis 180 30 90   XYZ
    dof rx
    limits (-10.0 170.0)
  end
  begin
     id 27 
     name rwrist
     direction -1 -4.49011e-011 1.53461e-026   
     length 1.52344   
     axis -1.09697e-014 -90 -90   XYZ
    dof ry
    limits (-180.0 0.0)
  end
  begin
     id 28
     name rhand
     direction -1 -4.48834e-011 3.06923e-026   
     length 0.500489   
     axis -1.95843e-014 -90 -90   XYZ
    dof rx rz
    limits (-90.0 90.0)
           (-45.0 45.0)
  end
  begin
     id 29
     name rfingers
     direction -1 -4.48967e-011 6.13845e-026   
     length 0.403507   
     axis -3.91686e-014 -90 -90   XYZ
    dof rx
    limits (0.0 90.0)
  end
  begin
     id 30
     name rthumb
     direction -0.707107 -6.34826e-011 0.707107   
     length 0.579358   
     axis -90 -45 -2.85299e-015   XYZ
    dof rx rz
    limits (-45.0 45.0)
           (-45.0 45.0)
  end
:hierarchy
  begin
    root lhipjoint rhipjoint lowerback
    lhipjoint lfemur
    lfemur ltibia
    ltibia lfoot
    lfoot ltoes
    rhipjoint rfemur
    rfemur rtibia
    rtibia rfoot
    rfoot rtoes
    lowerback upperback
    upperback thorax
    thorax lowerneck lclavicle rclavicle
    lowerneck upperneck
    upperneck head
    lclavicle lhumerus
    lhumerus lradius
    lradius lwrist
    lwrist lhand lthumb
    lhand lfingers
    rclavicle rhumerus
    rhumerus rradius
    rradius rwrist
    rwrist rhand rthumb
    rhand rfingers
  end

#!OML:ASF H:\IndianDance\Patient Classification 1\Patient 1\Session 1\dancer.ASF
:FULLY-SPECIFIED
:DEGREES
1400
root -6.54001 14.4567 2.73158 -175.865 -4.80847 -181.033
lowerback 8.12493 3.37907 6.68535
upperback -7.6386 4.52599 -5.26941
thorax -11.9882 1.09711 -10.422
lowerneck -16.2201 -5.16167 -2.34561
upperneck 20.1528 -8.46607 5.84797
head 9.39448 -3.71451 1.26086
rclavicle -1.78906e-014 7.15625e-015
rhumerus 55.8493 -21.9405 -13.459
rradius 64.1192
rwrist -56.293
rhand -9.93534 6.12408
rfingers 7.12502
rthumb 16.0459 -23.2315
lclavicle -1.78906e-014 7.15625e-015
lhumerus -5.88119 -9.95788 16.6588
lradius 32.2263
lwrist 14.383
lhand 35.1718 27.9379
lfingers 7.12502
lthumb 58.2867 43.3992
rfemur -51.2324 -29.8643 21.3541
rtibia 78.025
rfoot -14.0898 -14.3386
rtoes 18.4305
lfemur -26.3399 26.4241 -31.743
ltibia 51.885
lfoot -30.243 11.3407
ltoes 11.8344
1401
root -6.534 14.4558 2.72929 -175.875 -4.96233 -181.181
lowerback 8.09481 3.34989 6.44621
upperback -7.65586 4.43687 -5.31023
thorax -12.021 1.06648 -10.3143
lowerneck -16.2732 -5.15779 -2.40494
upperneck 20.4066 -8.53245 6.01805
head 9.50758 -3.73369 1.31496
rclavicle -1.19271e-014 -1.43125e-014
rhumerus 55.7911 -21.8462 -13.4501
rradius 64.1745
rwrist -56.3134
rhand -9.79639 6.24959
rfingers 7.12502
rthumb 16.1797 -23.0952
lclavicle -1.19271e-014 -1.43125e-014
lhumerus -5.79698 -9.91157 16.5906
lradius 32.0562
lwrist 14.2832
lhand 35.593 28.1251
lfingers 7.12502
lthumb 58.6526 43.2462
rfemur -51.4808 -30.231 21.2998
rtibia 79.9504
rfoot -14.4377 -13.9902
rtoes 18.3637
lfemur -26.2591 26.3929 -31.8479
ltibia 51.8342
lfoot -30.2639 11.3066
ltoes 11.4818
1402
root -6.52856 14.4554 2.72532 -175.862 -5.13193 -181.319
lowerback 8.02728 3.32009 6.24244
upperback -7.67718 4.34894 -5.355
thorax -12.0325 1.03417 -10.2283
lowerneck -16.3281 -5.16001 -2.47478
upperneck 20.6545 -8.60257 6.18082
head 9.61987 -3.75581 1.36804
rclavicle -5.08889e-014 -5.00937e-014
rhumerus 55.7087 -21.7484 -13.3964
rradius 64.2418
rwrist -56.341
rhand -9.62718 6.36489
rfingers 7.12502
rthumb 16.3426 -22.9665
lclavicle -5.08889e-014 -5.00937e-014
lhumerus -5.71104 -9.86331 16.5227
lradius 31.901
lwrist 14.1913
lhand 35.9606 28.29
lfingers 7.12502
lthumb 58.9708 43.1072
rfemur -51.6773 -30.5689 21.222
rtibia 81.6632
rfoot -14.8139 -13.6274
rtoes 18.1862
lfemur -26.1938 26.3433 -31.9487
ltibia 51.7817
lfoot -30.281 11.2651
ltoes 11.0927
1403
root -6.52365 14.4563 2.71992 -175.834 -5.30426 -181.427
lowerback 7.93327 3.29254 6.0906
upperback -7.70079 4.27123 -5.39622
thorax -12.0251 1.0038 -10.1674
lowerneck -16.3769 -5.16982 -2.55433
upperneck 20.8818 -8.67577 6.33399
head 9.7244 -3.78098 1.41959
rclavicle -2.84262e-014 -1.66979e-014
rhumerus 55.6048 -21.6517 -13.2978
rradius 64.3231
rwrist -56.4051
rhand -9.39966 6.4625
rfingers 7.12502
rthumb 16.5617 -22.8508
lclavicle -2.84262e-014 -1.66979e-014
lhumerus -5.62185 -9.81061 16.4591
lradius 31.7576
lwrist 14.1063
lhand 36.264 28.4294
lfingers 7.12502
lthumb 59.2328 42.9907
rfemur -51.8059 -30.8472 21.1353
rtibia 83.1223
rfoot -15.2428 -13.2593
rtoes 18.1567
lfemur -26.14 26.296 -32.0199
ltibia 51.73
lfoot -30.2931 11.1966
ltoes 10.6873
1404
root -6.51952 14.4583 2.71353 -175.797 -5.47373 -181.493
lowerback 7.82 3.26801 6.0057
upperback -7.72472 4.20842 -5.43079
thorax -11.9995 0.976757 -10.1384
lowerneck -16.4152 -5.18821 -2.64339
upperneck 21.0785 -8.75225 6.47935
head 9.81686 -3.80926 1.47028
rclavicle -8.34896e-015 -1.98785e-014
rhumerus 55.4779 -21.5619 -13.1544
rradius 64.4239
rwrist -56.518
rhand -9.15287 6.52136
rfingers 7.12502
rthumb 16.7993 -22.7719
lclavicle -8.34896e-015 -1.98785e-014
lhumerus -5.5275 -9.75382 16.401
lradius 31.6259
lwrist 14.0333
lhand 36.499 28.5446
lfingers 7.12502
lthumb 59.4352 42.9045
rfemur -51.8644 -31.0548 21.0551
rtibia 84.297
rfoot -15.6882 -12.9277
rtoes 18.2355
lfemur -26.0998 26.2607 -32.0486
ltibia 51.6847
lfoot -30.2998 11.0963
ltoes 10.255
1405
root -6.51618 14.4611 2.7066 -175.757 -5.63161 -181.515
lowerback 7.70381 3.2465 5.98751
upperback -7.75 4.16147 -5.4574
thorax -11.967 0.952833 -10.1415
lowerneck -16.4408 -5.2127 -2.74033
upperneck 21.2421 -8.82919 6.61969
head 9.89579 -3.83906 1.52122
rclavicle -3.22031e-014 1.35174e-014
rhumerus 55.3331 -21.4748 -12.9747
rradius 64.547
rwrist -56.6677
rhand -8.91074 6.5421
rfingers 7.12502
rthumb 17.0324 -22.7312
lclavicle -3.22031e-014 1.35174e-014
lhumerus -5.43283 -9.69219 16.3473
lradius 31.5055
lwrist 13.9722
lhand 36.674 28.6406
lfingers 7.12502
lthumb 59.5856 42.8487
rfemur -51.8476 -31.1734 20.9867
rtibia 85.1609
rfoot -16.1337 -12.6862
rtoes 18.4193
lfemur -26.0731 26.251 -32.0324
ltibia 51.651
lfoot -30.3037 10.972
ltoes 9.87
1406
root -6.51412 14.4642 2.6997 -175.713 -5.77996 -181.499
lowerback 7.59279 3.22708 6.03752
upperback -7.77788 4.1289 -5.47916
thorax -11.9342 0.93038 -10.1819
lowerneck -16.4536 -5.24297 -2.84171
upperneck 21.3724 -8.90569 6.7512
head 9.96058 -3.87009 1.57062
rclavicle 1.27222e-014 2.94201e-014
rhumerus 55.1706 -21.3895 -12.7626
rradius 64.694
rwrist -56.8255
rhand -8.71356 6.53696
rfingers 7.12502
rthumb 17.2221 -22.7199
lclavicle 1.27222e-014 2.94201e-014
lhumerus -5.33941 -9.62436 16.3003
lradius 31.3982
lwrist 13.9241
lhand 36.7902 28.7148
lfingers 7.12502
lthumb 59.6854 42.8212
rfemur -51.765 -31.2073 20.9259
rtibia 85.6955
rfoot -16.5809 -12.5647
rtoes 18.8075
lfemur -26.0657 26.2638 -31.9835
ltibia 51.6334
lfoot -30.3043 10.8191
ltoes 9.55475
